<mxfile host="app.diagrams.net" modified="2024-04-17T16:46:38.286Z" agent="Mozilla/5.0 (Windows NT 10.0; Win64; x64) AppleWebKit/537.36 (KHTML, like Gecko) Chrome/123.0.0.0 Safari/537.36" etag="HfT6dZsFybBF-h5f3Gg7" version="24.2.3" type="device">
  <diagram id="tLqv9-sf3Z-uMAi118b2" name="Página-1">
    <mxGraphModel dx="1120" dy="529" grid="1" gridSize="10" guides="1" tooltips="1" connect="1" arrows="1" fold="1" page="1" pageScale="1" pageWidth="827" pageHeight="1169" math="0" shadow="0">
      <root>
        <mxCell id="0" />
        <mxCell id="1" parent="0" />
        <mxCell id="QAlmYgeNAg_OzZLOJPU1-1" value="livro" style="whiteSpace=wrap;html=1;align=center;" parent="1" vertex="1">
          <mxGeometry x="540" y="260" width="100" height="40" as="geometry" />
        </mxCell>
        <mxCell id="QAlmYgeNAg_OzZLOJPU1-17" style="edgeStyle=orthogonalEdgeStyle;rounded=0;orthogonalLoop=1;jettySize=auto;html=1;entryX=0;entryY=0.5;entryDx=0;entryDy=0;" parent="1" source="QAlmYgeNAg_OzZLOJPU1-2" target="QAlmYgeNAg_OzZLOJPU1-16" edge="1">
          <mxGeometry relative="1" as="geometry" />
        </mxCell>
        <mxCell id="QAlmYgeNAg_OzZLOJPU1-2" value="autor" style="whiteSpace=wrap;html=1;align=center;" parent="1" vertex="1">
          <mxGeometry x="220" y="260" width="100" height="40" as="geometry" />
        </mxCell>
        <mxCell id="QAlmYgeNAg_OzZLOJPU1-3" value="escritora" style="ellipse;whiteSpace=wrap;html=1;align=center;" parent="1" vertex="1">
          <mxGeometry x="670" y="220" width="100" height="40" as="geometry" />
        </mxCell>
        <mxCell id="QAlmYgeNAg_OzZLOJPU1-21" style="edgeStyle=orthogonalEdgeStyle;rounded=0;orthogonalLoop=1;jettySize=auto;html=1;" parent="1" source="QAlmYgeNAg_OzZLOJPU1-4" target="QAlmYgeNAg_OzZLOJPU1-1" edge="1">
          <mxGeometry relative="1" as="geometry" />
        </mxCell>
        <mxCell id="QAlmYgeNAg_OzZLOJPU1-4" value="&lt;u&gt;nome&lt;/u&gt;" style="ellipse;whiteSpace=wrap;html=1;align=center;" parent="1" vertex="1">
          <mxGeometry x="540" y="170" width="100" height="40" as="geometry" />
        </mxCell>
        <mxCell id="QAlmYgeNAg_OzZLOJPU1-22" style="edgeStyle=orthogonalEdgeStyle;rounded=0;orthogonalLoop=1;jettySize=auto;html=1;" parent="1" source="QAlmYgeNAg_OzZLOJPU1-5" target="QAlmYgeNAg_OzZLOJPU1-1" edge="1">
          <mxGeometry relative="1" as="geometry" />
        </mxCell>
        <mxCell id="QAlmYgeNAg_OzZLOJPU1-5" value="ilustradora" style="ellipse;whiteSpace=wrap;html=1;align=center;" parent="1" vertex="1">
          <mxGeometry x="540" y="350" width="100" height="40" as="geometry" />
        </mxCell>
        <mxCell id="QAlmYgeNAg_OzZLOJPU1-13" style="edgeStyle=orthogonalEdgeStyle;rounded=0;orthogonalLoop=1;jettySize=auto;html=1;entryX=0.25;entryY=1;entryDx=0;entryDy=0;" parent="1" source="QAlmYgeNAg_OzZLOJPU1-6" target="QAlmYgeNAg_OzZLOJPU1-2" edge="1">
          <mxGeometry relative="1" as="geometry" />
        </mxCell>
        <mxCell id="QAlmYgeNAg_OzZLOJPU1-6" value="endereco&amp;nbsp;" style="ellipse;whiteSpace=wrap;html=1;align=center;" parent="1" vertex="1">
          <mxGeometry x="90" y="300" width="100" height="40" as="geometry" />
        </mxCell>
        <mxCell id="QAlmYgeNAg_OzZLOJPU1-14" style="edgeStyle=orthogonalEdgeStyle;rounded=0;orthogonalLoop=1;jettySize=auto;html=1;entryX=0.25;entryY=0;entryDx=0;entryDy=0;" parent="1" source="QAlmYgeNAg_OzZLOJPU1-7" target="QAlmYgeNAg_OzZLOJPU1-2" edge="1">
          <mxGeometry relative="1" as="geometry" />
        </mxCell>
        <mxCell id="QAlmYgeNAg_OzZLOJPU1-7" value="&lt;u&gt;cpf&lt;/u&gt;" style="ellipse;whiteSpace=wrap;html=1;align=center;" parent="1" vertex="1">
          <mxGeometry x="90" y="210" width="100" height="40" as="geometry" />
        </mxCell>
        <mxCell id="QAlmYgeNAg_OzZLOJPU1-15" style="edgeStyle=orthogonalEdgeStyle;rounded=0;orthogonalLoop=1;jettySize=auto;html=1;entryX=0.5;entryY=0;entryDx=0;entryDy=0;" parent="1" source="QAlmYgeNAg_OzZLOJPU1-8" target="QAlmYgeNAg_OzZLOJPU1-2" edge="1">
          <mxGeometry relative="1" as="geometry" />
        </mxCell>
        <mxCell id="QAlmYgeNAg_OzZLOJPU1-8" value="Nome" style="ellipse;whiteSpace=wrap;html=1;align=center;" parent="1" vertex="1">
          <mxGeometry x="220" y="170" width="100" height="40" as="geometry" />
        </mxCell>
        <mxCell id="QAlmYgeNAg_OzZLOJPU1-12" style="edgeStyle=orthogonalEdgeStyle;rounded=0;orthogonalLoop=1;jettySize=auto;html=1;entryX=0.5;entryY=1;entryDx=0;entryDy=0;" parent="1" source="QAlmYgeNAg_OzZLOJPU1-11" target="QAlmYgeNAg_OzZLOJPU1-2" edge="1">
          <mxGeometry relative="1" as="geometry" />
        </mxCell>
        <mxCell id="QAlmYgeNAg_OzZLOJPU1-11" value="telefone" style="ellipse;shape=doubleEllipse;margin=3;whiteSpace=wrap;html=1;align=center;" parent="1" vertex="1">
          <mxGeometry x="220" y="370" width="100" height="40" as="geometry" />
        </mxCell>
        <mxCell id="QAlmYgeNAg_OzZLOJPU1-18" style="edgeStyle=orthogonalEdgeStyle;rounded=0;orthogonalLoop=1;jettySize=auto;html=1;exitX=1;exitY=0.5;exitDx=0;exitDy=0;entryX=0;entryY=0.5;entryDx=0;entryDy=0;" parent="1" source="QAlmYgeNAg_OzZLOJPU1-16" target="QAlmYgeNAg_OzZLOJPU1-1" edge="1">
          <mxGeometry relative="1" as="geometry" />
        </mxCell>
        <mxCell id="QAlmYgeNAg_OzZLOJPU1-16" value="escreve" style="shape=rhombus;double=1;perimeter=rhombusPerimeter;whiteSpace=wrap;html=1;align=center;" parent="1" vertex="1">
          <mxGeometry x="370" y="250" width="120" height="60" as="geometry" />
        </mxCell>
        <mxCell id="QAlmYgeNAg_OzZLOJPU1-19" value="data de lançamento" style="ellipse;whiteSpace=wrap;html=1;align=center;" parent="1" vertex="1">
          <mxGeometry x="670" y="310" width="100" height="40" as="geometry" />
        </mxCell>
        <mxCell id="QAlmYgeNAg_OzZLOJPU1-20" style="edgeStyle=orthogonalEdgeStyle;rounded=0;orthogonalLoop=1;jettySize=auto;html=1;entryX=0.84;entryY=1;entryDx=0;entryDy=0;entryPerimeter=0;" parent="1" source="QAlmYgeNAg_OzZLOJPU1-19" target="QAlmYgeNAg_OzZLOJPU1-1" edge="1">
          <mxGeometry relative="1" as="geometry" />
        </mxCell>
        <mxCell id="QAlmYgeNAg_OzZLOJPU1-23" style="edgeStyle=orthogonalEdgeStyle;rounded=0;orthogonalLoop=1;jettySize=auto;html=1;entryX=0.83;entryY=0.025;entryDx=0;entryDy=0;entryPerimeter=0;" parent="1" source="QAlmYgeNAg_OzZLOJPU1-3" target="QAlmYgeNAg_OzZLOJPU1-1" edge="1">
          <mxGeometry relative="1" as="geometry" />
        </mxCell>
        <mxCell id="WI0He2lV_K_5qpZdMxyo-2" value="N" style="text;html=1;align=center;verticalAlign=middle;resizable=0;points=[];autosize=1;strokeColor=none;fillColor=none;" vertex="1" parent="1">
          <mxGeometry x="510" y="250" width="30" height="30" as="geometry" />
        </mxCell>
        <mxCell id="WI0He2lV_K_5qpZdMxyo-3" value="N" style="text;html=1;align=center;verticalAlign=middle;resizable=0;points=[];autosize=1;strokeColor=none;fillColor=none;" vertex="1" parent="1">
          <mxGeometry x="320" y="250" width="30" height="30" as="geometry" />
        </mxCell>
      </root>
    </mxGraphModel>
  </diagram>
</mxfile>
